<svg width="55" height="55" viewBox="0 0 55 55" fill="none" xmlns="http://www.w3.org/2000/svg">
<path d="M27.5 4.95516C34.8427 4.95516 35.7124 4.98309 38.6121 5.11521C41.2934 5.23768 42.7496 5.68562 43.7188 6.06225C45.0022 6.56111 45.9183 7.15709 46.8806 8.11938C47.8431 9.08166 48.4389 9.99775 48.9378 11.2812C49.3144 12.2504 49.7623 13.7066 49.8848 16.3876C50.0169 19.2876 50.0448 20.1573 50.0448 27.5C50.0448 34.8429 50.0169 35.7126 49.8848 38.6124C49.7623 41.2936 49.3144 42.7496 48.9378 43.7188C48.4389 45.0022 47.8429 45.9186 46.8806 46.8808C45.9183 47.8431 45.0022 48.4391 43.7188 48.9378C42.7496 49.3144 41.2934 49.7625 38.6121 49.8848C35.7128 50.0171 34.8431 50.0451 27.5 50.0451C20.1566 50.0451 19.287 50.0171 16.3876 49.8848C13.7064 49.7623 12.2504 49.3144 11.2812 48.9378C9.99775 48.4391 9.08145 47.8431 8.11916 46.8808C7.15688 45.9183 6.5609 45.0022 6.06225 43.7188C5.68562 42.7498 5.23746 41.2936 5.11521 38.6124C4.98287 35.7126 4.95494 34.8429 4.95494 27.5C4.95494 20.1573 4.98287 19.2876 5.11521 16.3879C5.23768 13.7066 5.68562 12.2504 6.06225 11.2812C6.5609 9.99775 7.15688 9.08166 8.11916 8.11938C9.08166 7.15688 9.99775 6.56111 11.2812 6.06225C12.2502 5.68562 13.7064 5.23768 16.3876 5.11521C19.2874 4.98309 20.1571 4.95516 27.5 4.95516ZM27.5 0C20.0314 0 19.0949 0.031582 16.1618 0.16543C13.2346 0.299062 11.2355 0.763984 9.48643 1.44375C7.67787 2.1465 6.14432 3.08687 4.61549 4.6157C3.08666 6.14453 2.1465 7.67809 1.44375 9.48643C0.76377 11.2357 0.299062 13.2348 0.16543 16.1618C0.031582 19.0949 0 20.0314 0 27.5C0 34.9686 0.031582 35.9051 0.16543 38.8382C0.299062 41.7654 0.76377 43.7645 1.44375 45.5136C2.14629 47.3219 3.08666 48.8557 4.61549 50.3845C6.14432 51.9133 7.67787 52.8535 9.48643 53.5563C11.2357 54.2362 13.2346 54.7009 16.1616 54.8346C19.0949 54.9684 20.0314 55 27.5 55C34.9686 55 35.9051 54.9684 38.8382 54.8346C41.7652 54.7009 43.7643 54.2362 45.5134 53.5563C47.3219 52.8537 48.8555 51.9133 50.3843 50.3845C51.9131 48.8557 52.8535 47.3221 53.5563 45.5136C54.236 43.7643 54.7009 41.7654 54.8346 38.8384C54.9684 35.9051 55 34.9686 55 27.5C55 20.0314 54.9684 19.0949 54.8346 16.1618C54.7009 13.2348 54.236 11.2357 53.5563 9.48664C52.8535 7.67809 51.9131 6.14453 50.3843 4.6157C48.8555 3.08687 47.3219 2.14629 45.5136 1.44375C43.7643 0.763984 41.7652 0.299062 38.8382 0.16543C35.9051 0.031582 34.9686 0 27.5 0ZM27.5 13.3783C19.7007 13.3783 13.3783 19.7012 13.3783 27.5C13.3783 35.2993 19.7007 41.6217 27.5 41.6217C35.299 41.6217 41.6217 35.2993 41.6217 27.5C41.6217 19.701 35.299 13.3783 27.5 13.3783ZM27.5 36.6667C22.4374 36.6667 18.3333 32.5626 18.3333 27.5C18.3333 22.4374 22.4374 18.3333 27.5 18.3333C32.5626 18.3333 36.6667 22.4374 36.6667 27.5C36.6667 32.5626 32.5626 36.6667 27.5 36.6667ZM45.4794 12.8204C45.4794 14.6431 44.0021 16.1204 42.1794 16.1204C40.3569 16.1204 38.8794 14.6431 38.8794 12.8204C38.8794 10.9979 40.3569 9.52037 42.1794 9.52037C44.0021 9.52037 45.4794 10.9979 45.4794 12.8204Z" fill="#0A0A08"/>
</svg>
