<svg width="64" height="64" viewBox="0 0 64 64" fill="none" xmlns="http://www.w3.org/2000/svg">
<path d="M31.68 0C14.1834 0 0 14.1834 0 31.68C0 49.1766 14.1834 63.36 31.68 63.36C49.1766 63.36 63.36 49.1766 63.36 31.68C63.36 14.1834 49.1766 0 31.68 0ZM23.925 44.8107H17.5098V24.1659H23.925V44.8107ZM20.6778 21.6315C18.6516 21.6315 17.3415 20.196 17.3415 18.4206C17.3415 16.6089 18.6912 15.2163 20.7603 15.2163C22.8294 15.2163 24.0966 16.6089 24.1362 18.4206C24.1362 20.196 22.8294 21.6315 20.6778 21.6315ZM47.355 44.8107H40.9398V33.3696C40.9398 30.7065 40.0092 28.8981 37.6893 28.8981C35.9172 28.8981 34.8645 30.1224 34.3992 31.3005C34.2276 31.7196 34.1847 32.3136 34.1847 32.9043V44.8074H27.7662V30.7494C27.7662 28.1721 27.6837 26.0172 27.5979 24.1626H33.1716L33.4653 27.0303H33.594C34.4388 25.6839 36.5079 23.6973 39.9696 23.6973C44.1903 23.6973 47.355 26.5254 47.355 32.604V44.8107Z" fill="black"/>
</svg>
